<svg width="119" height="76" viewBox="0 0 119 76" fill="none" xmlns="http://www.w3.org/2000/svg">
<path d="M50.435 72.9531C57.4263 70.4155 63.508 65.8618 67.9112 59.8677C72.3144 53.8737 74.8413 46.7086 75.1723 39.2784C75.5033 31.8482 73.6236 24.4868 69.7709 18.1249C65.9181 11.7631 60.2654 6.68659 53.5275 3.53738L37.6048 37.6048L50.435 72.9531Z" fill="#F34949"/>
<path d="M53.4452 65.2123C58.8666 63.2445 63.5827 59.7132 66.9972 55.0651C70.4117 50.417 72.3712 44.8607 72.6279 39.099C72.8846 33.3372 71.4269 27.6287 68.4393 22.6954C65.4517 17.762 61.0682 13.8254 55.8433 11.3833L43.4959 37.8011L53.4452 65.2123Z" fill="white"/>
<path d="M84.8081 54.4806C82.5648 54.4806 80.953 53.849 79.9727 52.586C79.0113 51.3041 78.5306 49.4566 78.5306 47.0436V38.3625C78.5306 35.9872 79.0207 34.1869 80.001 32.9616C80.9813 31.7362 82.5836 31.1236 84.8081 31.1236C87.0326 31.1236 88.6255 31.7457 89.587 32.9899C90.5673 34.2152 91.0574 36.0061 91.0574 38.3625V47.0719C91.0574 49.4472 90.5673 51.2758 89.587 52.5577C88.6067 53.8396 87.0137 54.4806 84.8081 54.4806ZM84.8081 51.9639C85.9958 51.9639 86.797 51.6151 87.2117 50.9176C87.6264 50.2201 87.8338 49.1644 87.8338 47.7506V37.7122C87.8338 36.3171 87.6264 35.2897 87.2117 34.6299C86.797 33.9513 85.9958 33.612 84.8081 33.612C83.6016 33.612 82.791 33.9513 82.3763 34.6299C81.9615 35.2897 81.7542 36.3171 81.7542 37.7122V47.7506C81.7542 49.1644 81.9615 50.2201 82.3763 50.9176C82.791 51.6151 83.6016 51.9639 84.8081 51.9639ZM94.1979 31.3215H99.1747C101.644 31.3215 103.388 31.887 104.406 33.0181C105.443 34.1492 105.961 35.9118 105.961 38.306V46.7326C105.961 49.2587 105.452 51.1438 104.434 52.388C103.435 53.6134 101.767 54.2261 99.4292 54.2261H94.1979V31.3215ZM99.203 51.9356C100.315 51.9356 101.116 51.7188 101.607 51.2852C102.116 50.8516 102.427 50.2672 102.54 49.532C102.672 48.778 102.738 47.6469 102.738 46.1388V38.7019C102.738 37.4011 102.653 36.4114 102.483 35.7327C102.332 35.0352 102.002 34.5263 101.493 34.2058C100.984 33.8665 100.193 33.6968 99.1182 33.6968H97.3933V51.9356H99.203ZM109.279 31.3215H112.418V54.2261H109.279V31.3215Z" fill="#F34949"/>
<path d="M75.5065 57.1661H76.3359C76.7475 57.1661 77.0382 57.2603 77.2078 57.4488C77.3806 57.6374 77.467 57.9311 77.467 58.3301V59.7346C77.467 60.1556 77.3822 60.4698 77.2125 60.6772C77.046 60.8814 76.768 60.9835 76.3784 60.9835H75.5065V57.1661ZM76.3407 60.6018C76.526 60.6018 76.6596 60.5656 76.7413 60.4934C76.8261 60.4211 76.8779 60.3237 76.8968 60.2012C76.9188 60.0755 76.9298 59.887 76.9298 59.6356V58.3961C76.9298 58.1793 76.9156 58.0144 76.8874 57.9013C76.8622 57.785 76.8072 57.7002 76.7224 57.6468C76.6376 57.5902 76.5056 57.5619 76.3265 57.5619H76.039V60.6018H76.3407ZM80.0443 61.0259C79.6704 61.0259 79.4018 60.9207 79.2384 60.7101C79.0782 60.4965 78.9981 60.1886 78.9981 59.7864V58.3396C78.9981 57.9437 79.0797 57.6436 79.2431 57.4394C79.4065 57.2352 79.6736 57.1331 80.0443 57.1331C80.4151 57.1331 80.6806 57.2368 80.8408 57.4441C81.0042 57.6484 81.0859 57.9468 81.0859 58.3396V59.7911C81.0859 60.187 81.0042 60.4918 80.8408 60.7054C80.6774 60.9191 80.4119 61.0259 80.0443 61.0259ZM80.0443 60.6065C80.2423 60.6065 80.3758 60.5483 80.4449 60.4321C80.514 60.3158 80.5486 60.1399 80.5486 59.9042V58.2312C80.5486 57.9987 80.514 57.8274 80.4449 57.7175C80.3758 57.6044 80.2423 57.5478 80.0443 57.5478C79.8432 57.5478 79.7081 57.6044 79.639 57.7175C79.5699 57.8274 79.5353 57.9987 79.5353 58.2312V59.9042C79.5353 60.1399 79.5699 60.3158 79.639 60.4321C79.7081 60.5483 79.8432 60.6065 80.0443 60.6065ZM82.7475 57.1661H83.2706L83.9446 60.2624L84.6232 57.1661H85.1417L85.2123 60.9835H84.7835L84.7411 58.2123L84.0954 60.9835H83.7938L83.1528 58.2123L83.1104 60.9835H82.6768L82.7475 57.1661ZM86.8744 57.1661H87.8217C88.1516 57.1661 88.3904 57.2556 88.5381 57.4347C88.6889 57.6138 88.7643 57.8761 88.7643 58.2218C88.7643 58.5328 88.6842 58.7747 88.5239 58.9475C88.3637 59.1203 88.1312 59.2067 87.8264 59.2067H87.407V60.9835H86.8744V57.1661ZM87.6521 58.825C87.8092 58.825 87.9301 58.8077 88.015 58.7732C88.1029 58.7386 88.1658 58.6789 88.2035 58.5941C88.2412 58.5092 88.26 58.3867 88.26 58.2265C88.26 58.0317 88.2459 57.8887 88.2176 57.7976C88.1893 57.7065 88.1328 57.6421 88.0479 57.6044C87.9663 57.5667 87.8359 57.5478 87.6568 57.5478H87.407V58.825H87.6521ZM90.2158 57.1661H91.6956V57.5619H90.7484V58.825H91.5165V59.202H90.7484V60.6018H91.7051V60.9835H90.2158V57.1661ZM93.6314 57.5619H92.9857V57.1661H94.7908V57.5619H94.164V60.9835H93.6314V57.5619ZM97.3127 57.1661H98.1422C98.5538 57.1661 98.8444 57.2603 99.0141 57.4488C99.1869 57.6374 99.2733 57.9311 99.2733 58.3301V59.7346C99.2733 60.1556 99.1884 60.4698 99.0188 60.6772C98.8523 60.8814 98.5742 60.9835 98.1846 60.9835H97.3127V57.1661ZM98.1469 60.6018C98.3323 60.6018 98.4658 60.5656 98.5475 60.4934C98.6323 60.4211 98.6842 60.3237 98.703 60.2012C98.725 60.0755 98.736 59.887 98.736 59.6356V58.3961C98.736 58.1793 98.7219 58.0144 98.6936 57.9013C98.6685 57.785 98.6135 57.7002 98.5286 57.6468C98.4438 57.5902 98.3118 57.5619 98.1328 57.5619H97.8453V60.6018H98.1469ZM100.903 57.1661H101.426V60.9835H100.903V57.1661ZM104.031 61.0306C103.685 61.0306 103.435 60.9222 103.281 60.7054C103.127 60.4855 103.05 60.1603 103.05 59.7299V58.4527C103.05 58.1573 103.08 57.9154 103.14 57.7269C103.203 57.5352 103.308 57.3891 103.456 57.2886C103.606 57.1849 103.812 57.1331 104.073 57.1331C104.425 57.1331 104.678 57.2226 104.832 57.4017C104.989 57.5808 105.067 57.862 105.067 58.2453V58.3867H104.568V58.2689C104.568 58.0866 104.557 57.9468 104.535 57.8494C104.513 57.7489 104.466 57.6735 104.393 57.6232C104.324 57.5729 104.221 57.5478 104.082 57.5478C103.935 57.5478 103.825 57.5824 103.752 57.6515C103.68 57.7175 103.633 57.807 103.611 57.9201C103.592 58.0332 103.583 58.184 103.583 58.3726V59.7864C103.583 60.0786 103.617 60.2891 103.687 60.4179C103.759 60.5436 103.895 60.6065 104.097 60.6065C104.294 60.6065 104.43 60.5373 104.502 60.3991C104.577 60.2609 104.615 60.0393 104.615 59.7346V59.4707H104.13V59.0936H105.096V60.9835H104.761L104.709 60.5452C104.59 60.8688 104.364 61.0306 104.031 61.0306ZM106.748 57.1661H107.271V60.9835H106.748V57.1661ZM109.385 57.5619H108.74V57.1661H110.545V57.5619H109.918V60.9835H109.385V57.5619ZM112.593 57.1661H113.107L113.922 60.9835H113.418L113.243 60.0221H112.466L112.282 60.9835H111.782L112.593 57.1661ZM113.173 59.6403L112.852 57.9201L112.537 59.6403H113.173ZM115.386 57.1661H115.919V60.6018H116.895V60.9835H115.386V57.1661Z" fill="black"/>
</svg>
